<?xml version="1.0" encoding="utf-8"?>
<!-- Generator: Adobe Illustrator 24.3.0, SVG Export Plug-In . SVG Version: 6.00 Build 0)  -->
<svg version="1.1"
	 id="Capa_1" inkscape:version="0.48.2 r9819" sodipodi:docname="Symbol from Marvel&apos;s The Avengers logo.svg" xmlns:cc="http://creativecommons.org/ns#" xmlns:dc="http://purl.org/dc/elements/1.1/" xmlns:inkscape="http://www.inkscape.org/namespaces/inkscape" xmlns:rdf="http://www.w3.org/1999/02/22-rdf-syntax-ns#" xmlns:sodipodi="http://sodipodi.sourceforge.net/DTD/sodipodi-0.dtd" xmlns:svg="http://www.w3.org/2000/svg"
	 xmlns="http://www.w3.org/2000/svg" xmlns:xlink="http://www.w3.org/1999/xlink" x="0px" y="0px" viewBox="0 0 190.8 222.8"
	 style="enable-background:new 0 0 190.8 222.8;" xml:space="preserve">
<style type="text/css">
	.st0{fill:#FFFFFF;}
</style>
<sodipodi:namedview  bordercolor="#666666" borderopacity="1" fit-margin-bottom="0" fit-margin-left="0" fit-margin-right="0" fit-margin-top="0" gridtolerance="10" guidetolerance="10" id="namedview7" inkscape:current-layer="Capa_1" inkscape:cx="94.766" inkscape:cy="111.736" inkscape:pageopacity="0" inkscape:pageshadow="2" inkscape:window-height="837" inkscape:window-maximized="1" inkscape:window-width="1600" inkscape:window-x="-8" inkscape:window-y="-8" inkscape:zoom="0.38562092" objecttolerance="10" pagecolor="#ffffff" showgrid="false">
	</sodipodi:namedview>
<path id="path3" inkscape:connector-curvature="0" class="st0" d="M91.3,43.6c-42.3,2.2-76,37.6-76,80.9c0,14.6,3.8,28.3,10.5,40.2
	l-8.1,15.8C6.5,164.7,0,145.4,0,124.5c0-53.3,42.7-96.5,95.4-96.5c0.8,0,1.5,0,2.3,0L111.4,0h29.4v39.7
	c29.7,16.3,49.9,48.2,49.9,84.8c0,53.3-42.7,96.5-95.4,96.5c-16.1,0-31.2-4-44.5-11.1l6.7-13.9c11.3,6.1,24.1,9.6,37.8,9.6
	c44.2,0,80.1-36.3,80.1-81c0-28-14-52.6-35.3-67.2V134l-26.9-25.4V50.5l-33.2,78.9h33.2v-12.7l31.1,29.3l-32.2,24.7v-13.1H68.4
	l-28.9,65.2l-35.7-0.7L91.3,43.6z"/>
<polygon id="polygon5" class="st0" points="112.2,179.6 140.1,155.7 140.1,179.6 "/>
</svg>
